<?xml version="1.0" standalone="no"?>
<!DOCTYPE svg PUBLIC "-//W3C//DTD SVG 20010904//EN"
 "http://www.w3.org/TR/2001/REC-SVG-20010904/DTD/svg10.dtd">
<svg version="1.0" xmlns="http://www.w3.org/2000/svg"
 width="1136.000000pt" height="1136.000000pt" viewBox="0 0 1136.000000 1136.000000"
 preserveAspectRatio="xMidYMid meet">
<metadata>
Created by potrace 1.14, written by Peter Selinger 2001-2017
</metadata>
<g transform="translate(0.000000,1136.000000) scale(0.100000,-0.100000)"
fill="#000000" stroke="none">
<path d="M7340 9049 c-318 -21 -559 -65 -748 -135 -120 -44 -432 -200 -527
-262 -38 -25 -119 -95 -178 -154 l-109 -109 -100 97 c-240 229 -521 393 -808
468 -185 49 -616 96 -877 96 -170 0 -757 -44 -873 -66 -274 -51 -628 -213
-970 -445 -63 -43 -129 -90 -146 -106 l-31 -28 -57 -935 c-31 -514 -59 -951
-62 -972 -5 -32 -13 -41 -67 -75 -127 -78 -475 -391 -548 -491 -13 -18 -36
-48 -51 -65 -15 -18 -28 -35 -28 -38 0 -3 -11 -19 -25 -35 -55 -63 -189 -307
-239 -434 -73 -188 -101 -419 -82 -665 9 -118 54 -313 78 -340 4 -5 8 -15 8
-22 0 -22 70 -163 121 -245 27 -43 49 -80 49 -84 0 -5 50 -74 61 -84 3 -3 25
-32 49 -65 41 -57 237 -256 315 -320 20 -16 55 -47 76 -67 21 -21 39 -36 39
-33 0 6 19 -8 56 -42 13 -12 33 -24 44 -28 11 -4 18 -10 15 -15 -3 -4 7 -11
20 -14 14 -4 23 -10 20 -15 -2 -5 6 -12 20 -15 14 -4 25 -11 25 -16 0 -6 7
-10 15 -10 8 0 25 -11 39 -25 14 -14 28 -24 30 -23 3 2 13 -4 23 -12 10 -9 21
-15 25 -15 4 0 16 -7 27 -16 10 -10 28 -20 40 -24 12 -3 21 -10 21 -15 0 -5
13 -11 30 -15 16 -4 30 -11 30 -16 0 -5 7 -9 16 -9 8 0 12 -4 9 -10 -3 -5 0
-7 7 -5 8 3 23 -3 34 -13 11 -10 32 -22 47 -26 15 -3 27 -11 27 -16 0 -6 7
-10 15 -10 23 0 85 -36 77 -45 -4 -5 -2 -5 5 -1 11 6 51 -10 63 -25 3 -4 20
-10 37 -14 18 -3 33 -11 33 -16 0 -5 9 -9 21 -9 13 0 18 -4 13 -12 -4 -7 -3
-8 5 -4 12 8 71 -14 71 -26 0 -3 18 -9 40 -13 22 -4 40 -10 40 -15 0 -4 15
-10 32 -14 40 -8 88 -28 88 -37 0 -4 20 -10 45 -13 25 -4 45 -11 45 -17 0 -5
11 -9 25 -9 14 0 25 -4 25 -9 0 -5 6 -8 13 -8 24 1 77 -16 77 -24 0 -5 12 -9
26 -9 14 0 23 -4 20 -9 -3 -4 5 -6 18 -4 13 3 27 0 30 -6 4 -6 18 -11 32 -11
13 0 24 -4 24 -9 0 -5 25 -12 55 -16 30 -3 55 -11 55 -16 0 -5 14 -9 31 -9 16
0 28 -4 25 -9 -3 -5 21 -12 54 -15 33 -4 60 -11 60 -16 0 -6 13 -10 29 -10 17
0 32 -4 35 -9 3 -5 20 -11 38 -14 77 -14 104 -20 113 -27 6 -5 40 -11 78 -15
37 -4 70 -11 73 -16 3 -5 21 -9 40 -9 19 0 33 -3 31 -8 -3 -4 14 -8 36 -9 79
-4 147 -15 147 -24 0 -5 23 -9 51 -9 27 0 48 -3 45 -8 -2 -4 14 -8 37 -8 70
-2 177 -16 177 -24 0 -4 26 -10 58 -14 125 -16 241 -27 322 -32 47 -3 94 -9
105 -14 27 -13 118 -16 725 -28 352 -8 559 -8 655 -1 210 16 332 22 412 23 39
1 69 4 66 9 -2 4 24 7 59 7 35 0 68 4 73 9 11 10 115 21 193 20 37 0 52 3 47
11 -5 8 8 11 42 10 26 0 71 3 98 9 28 5 86 16 130 23 44 7 85 16 90 20 6 3 45
9 88 13 42 4 77 11 77 16 0 5 15 9 33 9 19 0 37 3 41 7 4 4 30 9 59 10 28 1
60 6 71 11 36 16 89 31 136 38 25 4 50 10 55 14 6 5 31 11 58 15 26 4 50 11
53 16 3 5 16 9 29 9 13 0 26 4 30 9 3 5 30 13 60 16 30 4 53 11 50 15 -2 4 29
13 70 19 41 7 75 16 75 21 0 5 20 12 45 16 25 3 45 10 45 15 0 5 9 9 19 9 11
0 22 4 25 9 4 5 24 12 46 16 22 4 40 11 40 15 0 5 20 12 45 16 25 3 45 9 45
13 0 10 61 31 71 25 5 -3 9 0 9 5 0 6 9 11 20 11 11 0 20 4 20 10 0 5 18 13
40 16 22 4 38 10 35 14 -3 4 11 11 31 15 33 6 77 24 146 61 14 8 33 14 42 14
9 0 16 3 16 8 0 4 20 16 45 27 25 11 45 23 45 27 0 4 16 10 35 14 19 3 33 10
30 14 -3 5 8 11 25 15 16 4 30 10 30 15 0 4 12 11 26 14 14 4 35 16 47 27 12
11 27 17 35 14 7 -2 10 0 7 5 -3 6 1 10 9 10 9 0 16 5 16 11 0 6 7 8 16 5 8
-3 12 -2 9 4 -3 6 1 10 9 10 9 0 16 4 16 9 0 5 15 14 33 20 19 7 63 32 98 56
35 25 72 51 83 57 28 20 150 111 156 117 21 24 107 85 115 83 5 -2 7 -1 3 3
-6 6 17 29 96 95 39 34 217 218 249 260 44 55 156 222 183 270 10 19 21 37 24
40 23 23 103 237 128 340 24 101 24 102 37 195 19 132 -1 428 -35 540 -55 177
-68 212 -126 330 -33 68 -139 228 -217 328 -72 92 -185 208 -297 308 -71 63
-290 234 -309 241 -5 2 -33 443 -63 982 -51 939 -54 979 -73 991 -11 7 -90 57
-175 111 -171 108 -317 176 -547 253 -292 99 -684 196 -898 221 -124 15 -522
20 -685 9z"/>
</g>
</svg>
