<?xml version="1.0" standalone="no"?>
<!DOCTYPE svg PUBLIC "-//W3C//DTD SVG 20010904//EN"
 "http://www.w3.org/TR/2001/REC-SVG-20010904/DTD/svg10.dtd">
<svg version="1.0" xmlns="http://www.w3.org/2000/svg"
 width="1136.000000pt" height="880.000000pt" viewBox="0 0 1136.000000 880.000000"
 preserveAspectRatio="xMidYMid meet">

<g transform="translate(0.000000,880.000000) scale(0.100000,-0.100000)"
fill="#000000" stroke="none">
<path d="M7340 7769 c-318 -21 -559 -65 -748 -135 -120 -44 -432 -200 -527
-262 -38 -25 -119 -95 -178 -154 l-109 -109 -100 97 c-240 229 -521 393 -808
468 -185 49 -616 96 -877 96 -170 0 -757 -44 -873 -66 -274 -51 -628 -213
-970 -445 -63 -43 -129 -90 -146 -106 l-31 -28 -57 -935 c-31 -514 -59 -951
-62 -972 -5 -32 -13 -41 -67 -75 -127 -78 -475 -391 -548 -491 -13 -18 -36
-48 -51 -65 -15 -18 -28 -35 -28 -38 0 -3 -11 -19 -25 -35 -55 -63 -189 -307
-239 -434 -73 -188 -101 -419 -82 -665 9 -118 54 -313 78 -340 4 -5 8 -15 8
-22 0 -22 70 -163 121 -245 27 -43 49 -80 49 -84 0 -5 50 -74 61 -84 3 -3 25
-32 49 -65 41 -57 237 -256 315 -320 20 -16 55 -47 76 -67 21 -21 39 -36 39
-33 0 6 19 -8 56 -42 13 -12 33 -24 44 -28 11 -4 18 -10 15 -15 -3 -4 7 -11
20 -14 14 -4 23 -10 20 -15 -2 -5 6 -12 20 -15 14 -4 25 -11 25 -16 0 -6 7
-10 15 -10 8 0 25 -11 39 -25 14 -14 28 -24 30 -23 3 2 13 -4 23 -12 10 -9 21
-15 25 -15 4 0 16 -7 27 -16 10 -10 28 -20 40 -24 12 -3 21 -10 21 -15 0 -5
13 -11 30 -15 16 -4 30 -11 30 -16 0 -5 7 -9 16 -9 8 0 12 -4 9 -10 -3 -5 0
-7 7 -5 8 3 23 -3 34 -13 11 -10 32 -22 47 -26 15 -3 27 -11 27 -16 0 -6 7
-10 15 -10 23 0 85 -36 77 -45 -4 -5 -2 -5 5 -1 11 6 51 -10 63 -25 3 -4 20
-10 37 -14 18 -3 33 -11 33 -16 0 -5 9 -9 21 -9 13 0 18 -4 13 -12 -4 -7 -3
-8 5 -4 12 8 71 -14 71 -26 0 -3 18 -9 40 -13 22 -4 40 -10 40 -15 0 -4 15
-10 32 -14 40 -8 88 -28 88 -37 0 -4 20 -10 45 -13 25 -4 45 -11 45 -17 0 -5
11 -9 25 -9 14 0 25 -4 25 -9 0 -5 6 -8 13 -8 24 1 77 -16 77 -24 0 -5 12 -9
26 -9 14 0 23 -4 20 -9 -3 -4 5 -6 18 -4 13 3 27 0 30 -6 4 -6 18 -11 32 -11
13 0 24 -4 24 -9 0 -5 25 -12 55 -16 30 -3 55 -11 55 -16 0 -5 14 -9 31 -9 16
0 28 -4 25 -9 -3 -5 21 -12 54 -15 33 -4 60 -11 60 -16 0 -6 13 -10 29 -10 17
0 32 -4 35 -9 3 -5 20 -11 38 -14 77 -14 104 -20 113 -27 6 -5 40 -11 78 -15
37 -4 70 -11 73 -16 3 -5 21 -9 40 -9 19 0 33 -3 31 -8 -3 -4 14 -8 36 -9 79
-4 147 -15 147 -24 0 -5 23 -9 51 -9 27 0 48 -3 45 -8 -2 -4 14 -8 37 -8 70
-2 177 -16 177 -24 0 -4 26 -10 58 -14 125 -16 241 -27 322 -32 47 -3 94 -9
105 -14 27 -13 118 -16 725 -28 352 -8 559 -8 655 -1 210 16 332 22 412 23 39
1 69 4 66 9 -2 4 24 7 59 7 35 0 68 4 73 9 11 10 115 21 193 20 37 0 52 3 47
11 -5 8 8 11 42 10 26 0 71 3 98 9 28 5 86 16 130 23 44 7 85 16 90 20 6 3 45
9 88 13 42 4 77 11 77 16 0 5 15 9 33 9 19 0 37 3 41 7 4 4 30 9 59 10 28 1
60 6 71 11 36 16 89 31 136 38 25 4 50 10 55 14 6 5 31 11 58 15 26 4 50 11
53 16 3 5 16 9 29 9 13 0 26 4 30 9 3 5 30 13 60 16 30 4 53 11 50 15 -2 4 29
13 70 19 41 7 75 16 75 21 0 5 20 12 45 16 25 3 45 10 45 15 0 5 9 9 19 9 11
0 22 4 25 9 4 5 24 12 46 16 22 4 40 11 40 15 0 5 20 12 45 16 25 3 45 9 45
13 0 10 61 31 71 25 5 -3 9 0 9 5 0 6 9 11 20 11 11 0 20 4 20 10 0 5 18 13
40 16 22 4 38 10 35 14 -3 4 11 11 31 15 33 6 77 24 146 61 14 8 33 14 42 14
9 0 16 3 16 8 0 4 20 16 45 27 25 11 45 23 45 27 0 4 16 10 35 14 19 3 33 10
30 14 -3 5 8 11 25 15 16 4 30 10 30 15 0 4 12 11 26 14 14 4 35 16 47 27 12
11 27 17 35 14 7 -2 10 0 7 5 -3 6 1 10 9 10 9 0 16 5 16 11 0 6 7 8 16 5 8
-3 12 -2 9 4 -3 6 1 10 9 10 9 0 16 4 16 9 0 5 15 14 33 20 19 7 63 32 98 56
35 25 72 51 83 57 28 20 150 111 156 117 21 24 107 85 115 83 5 -2 7 -1 3 3
-6 6 17 29 96 95 39 34 217 218 249 260 44 55 156 222 183 270 10 19 21 37 24
40 23 23 103 237 128 340 24 101 24 102 37 195 19 132 -1 428 -35 540 -55 177
-68 212 -126 330 -33 68 -139 228 -217 328 -72 92 -185 208 -297 308 -71 63
-290 234 -309 241 -5 2 -33 443 -63 982 -51 939 -54 979 -73 991 -11 7 -90 57
-175 111 -171 108 -317 176 -547 253 -292 99 -684 196 -898 221 -124 15 -522
20 -685 9z m-3242 -336 c-71 -2 -185 -2 -255 0 -71 1 -13 3 127 3 140 0 198
-2 128 -3z m3785 0 c3 -5 -129 -8 -293 -8 -164 0 -296 3 -293 8 2 4 134 7 293
7 159 0 291 -3 293 -7z m-3626 -9 c-3 -3 -12 -4 -19 -1 -8 3 -5 6 6 6 11 1 17
-2 13 -5z m-602 -10 c-45 -7 -216 -9 -199 -3 11 4 64 7 119 7 55 0 91 -2 80
-4z m712 -1 c-20 -2 -52 -2 -70 0 -17 2 0 4 38 4 39 0 53 -2 32 -4z m2883 1
c-59 -8 -138 -8 -133 -1 2 4 39 6 81 6 42 -1 66 -3 52 -5z m873 -1 c3 -5 -27
-7 -66 -5 -122 4 -136 9 -35 10 53 1 99 -1 101 -5z m-4710 -20 c-13 -2 -33 -2
-45 0 -13 2 -3 4 22 4 25 0 35 -2 23 -4z m1095 0 c-10 -2 -28 -2 -40 0 -13 2
-5 4 17 4 22 1 32 -1 23 -4z m2572 1 c-34 -7 -108 -8 -103 -1 2 4 30 6 61 6
31 -1 50 -3 42 -5z m1144 -2 c2 -4 -13 -6 -35 -4 -21 2 -39 6 -39 8 0 7 69 4
74 -4z m-4921 -19 c-7 -2 -21 -2 -30 0 -10 3 -4 5 12 5 17 0 24 -2 18 -5z
m1381 -1 c2 -4 -14 -6 -37 -4 -68 5 -76 10 -20 11 28 0 54 -2 57 -7z m2271 3
c-23 -8 -83 -10 -79 -3 3 4 24 8 47 7 23 0 38 -2 32 -4z m1389 -3 c2 -4 -12
-6 -32 -4 -62 6 -69 10 -20 11 26 0 49 -3 52 -7z m-5141 -19 c-7 -2 -21 -2
-30 0 -10 3 -4 5 12 5 17 0 24 -2 18 -5z m1561 -1 c2 -4 -11 -6 -30 -4 -19 2
-34 6 -34 8 0 8 59 4 64 -4z m2096 4 c0 -2 -15 -6 -34 -8 -19 -2 -32 0 -30 4
5 8 64 12 64 4z m1584 -4 c2 -4 -13 -6 -35 -4 -21 2 -39 6 -39 8 0 7 69 4 74
-4z m-5341 -19 c-7 -2 -19 -2 -25 0 -7 3 -2 5 12 5 14 0 19 -2 13 -5z m1741
-1 c2 -4 -11 -6 -30 -4 -19 2 -34 6 -34 8 0 8 59 4 64 -4z m1936 4 c0 -2 -15
-6 -34 -8 -19 -2 -32 0 -30 4 5 8 64 12 64 4z m1744 -4 c2 -4 -11 -6 -30 -4
-19 2 -34 6 -34 8 0 8 59 4 64 -4z m-5501 -19 c-7 -2 -19 -2 -25 0 -7 3 -2 5
12 5 14 0 19 -2 13 -5z m1902 -3 c3 -5 14 -10 24 -10 17 0 81 -28 81 -35 0 -6
-40 8 -46 16 -3 5 -15 9 -28 9 -12 0 -26 4 -31 9 -6 5 -23 11 -40 14 l-30 4
32 2 c17 0 35 -3 38 -9z m1750 3 c-16 -3 -34 -9 -39 -14 -6 -5 -20 -9 -32 -9
-13 0 -26 -4 -29 -10 -3 -5 -17 -10 -30 -10 -13 0 -26 -4 -29 -9 -6 -8 -46
-22 -46 -16 0 7 64 35 81 35 10 0 21 5 24 10 3 6 17 10 30 10 13 0 27 5 30 10
3 6 21 9 38 9 l32 -2 -30 -4z m1930 -3 c3 -5 17 -10 30 -10 13 0 27 -4 30 -10
3 -5 14 -10 24 -10 17 0 81 -28 81 -35 0 -6 -40 8 -46 16 -3 5 -16 9 -29 9
-13 0 -27 5 -30 10 -3 6 -16 10 -29 10 -12 0 -26 4 -31 9 -6 5 -23 11 -40 14
l-30 4 32 2 c17 0 35 -3 38 -9z m-5635 -10 c-8 -5 -19 -10 -25 -10 -5 0 -3 5
5 10 8 5 20 10 25 10 6 0 3 -5 -5 -10z m-63 -26 c-3 -3 -12 -4 -19 -1 -8 3 -5
6 6 6 11 1 17 -2 13 -5z m-47 -8 c0 -2 -7 -7 -16 -10 -8 -3 -12 -2 -9 4 6 10
25 14 25 6z m2224 -15 c3 -4 -6 -6 -19 -3 -14 2 -25 6 -25 8 0 8 39 4 44 -5z
m-2309 -18 c-25 -5 -221 -101 -256 -125 -41 -27 -161 -90 -155 -80 3 4 27 19
53 32 26 13 61 33 77 44 61 41 252 134 276 134 19 0 20 -1 5 -5z m2486 -61
c147 -74 211 -115 249 -158 24 -28 23 -28 -10 2 -19 17 -55 44 -80 61 -41 26
-274 144 -310 156 -13 5 -13 6 1 6 8 1 76 -30 150 -67z m1189 61 c-36 -12
-269 -130 -310 -156 -25 -17 -61 -44 -80 -61 -33 -30 -34 -30 -10 -2 14 15 45
42 70 59 64 45 301 165 325 165 13 0 15 -1 5 -5z m2471 -51 c107 -55 199 -109
199 -119 0 -5 -11 1 -65 37 -37 24 -232 122 -265 133 -13 5 -13 6 1 6 8 1 67
-25 130 -57z m-4496 -11 c128 -15 221 -28 285 -41 114 -22 146 -29 185 -38 53
-13 157 -48 198 -66 18 -8 55 -22 82 -31 66 -22 223 -101 310 -157 90 -57 208
-184 248 -265 19 -39 38 -63 47 -63 10 0 26 21 40 53 27 57 184 227 259 280
57 39 271 147 293 147 9 0 19 4 22 8 4 7 76 32 256 88 30 9 76 21 103 25 26 5
71 14 100 20 185 37 374 51 707 51 278 0 389 -6 538 -31 34 -6 88 -15 120 -20
93 -15 205 -45 361 -97 115 -39 320 -135 344 -162 15 -16 16 -213 18 -1997 2
-1089 -1 -1990 -5 -2002 -9 -28 -38 -30 -74 -4 -75 52 -293 147 -421 183 -266
74 -430 92 -836 91 -422 0 -485 -8 -890 -110 -77 -20 -151 -38 -165 -41 -14
-3 -40 -14 -58 -24 -18 -10 -41 -18 -52 -18 -10 0 -22 -4 -25 -10 -3 -5 -14
-10 -24 -10 -21 0 -236 -108 -283 -141 -52 -39 -276 -267 -293 -299 -23 -44
-47 -38 -85 23 -51 79 -117 154 -179 200 -100 76 -256 164 -356 200 -22 8 -65
25 -95 37 -114 45 -195 70 -333 104 -197 47 -244 56 -412 78 -118 16 -669 15
-800 0 -55 -7 -122 -15 -150 -18 -81 -9 -333 -73 -425 -109 -47 -19 -137 -59
-199 -89 -63 -31 -119 -56 -126 -56 -15 0 -25 1109 -25 2801 l0 1208 28 19
c106 73 414 191 582 223 30 6 75 15 100 20 92 19 167 30 257 37 51 5 96 11
100 15 10 11 622 1 728 -12z m4820 -179 c-3 -3 -11 0 -18 7 -9 10 -8 11 6 5
10 -3 15 -9 12 -12z m-3645 -57 c30 -30 52 -55 49 -55 -2 0 -29 25 -59 55 -30
30 -52 55 -49 55 2 0 29 -25 59 -55z m3685 37 c-3 -3 -11 0 -18 7 -9 10 -8 11
6 5 10 -3 15 -9 12 -12z m-3275 5 c0 -1 -26 -27 -57 -57 l-58 -55 55 58 c50
53 60 62 60 54z m3315 -25 c-3 -3 -11 0 -18 7 -9 10 -8 11 6 5 10 -3 15 -9 12
-12z m-7122 -18 c-18 -14 -37 -33 -43 -42 -9 -16 -9 -16 -10 0 0 10 17 29 37
43 48 32 57 32 16 -1z m7162 -2 c-3 -3 -11 0 -18 7 -9 10 -8 11 6 5 10 -3 15
-9 12 -12z m55 -32 c0 -6 -9 -2 -20 7 -11 10 -20 19 -20 21 0 1 9 -2 20 -8 11
-6 20 -15 20 -20z m-7273 -557 c-1 -98 -2 -18 -2 177 0 195 1 275 2 178 2 -98
2 -258 0 -355z m7316 -1274 c143 -100 430 -365 557 -514 154 -182 266 -379
310 -545 20 -78 22 -101 17 -265 -6 -209 -23 -291 -87 -422 -53 -107 -148
-208 -384 -407 -98 -83 -204 -172 -235 -199 -31 -26 -91 -71 -133 -99 l-78
-52 -2 -230 -3 -231 -580 -6 c-513 -5 -586 -7 -635 -23 -134 -42 -437 -114
-650 -155 -377 -72 -640 -104 -985 -121 -121 -5 -355 -17 -520 -26 -316 -17
-470 -15 -745 11 -85 8 -204 20 -265 25 -60 6 -153 15 -205 20 -52 6 -176 17
-275 25 -495 42 -676 63 -889 106 -159 32 -333 77 -431 112 -58 21 -80 22
-560 27 -275 3 1128 6 3117 8 l3618 2 4 1143 c2 628 3 1149 3 1157 0 8 0 564
-1 1235 -1 671 0 821 1 333 l3 -887 33 -22z m-3729 1696 c14 -28 26 -56 26
-61 0 -5 -14 18 -30 50 -16 32 -40 71 -52 85 l-23 26 27 -24 c15 -13 38 -47
52 -76z m144 65 c-22 -30 -35 -41 -22 -17 9 16 36 47 41 47 2 0 -6 -13 -19
-30z m-88 -164 c-7 -7 -13 -7 -20 0 -6 6 -3 10 10 10 13 0 16 -4 10 -10z
m-3647 -2547 c1 -1102 1 -1893 0 -1757 l-3 246 -65 46 c-35 26 -106 82 -157
125 -373 316 -607 649 -674 961 -75 353 138 783 551 1112 91 72 299 208 319
208 14 0 16 55 16 537 0 295 2 534 6 531 3 -3 6 -907 7 -2009z"/>
</g>
</svg>
